<svg width="520.568" height="456.866" viewBox="0 0 137.734 120.879" version="1.1" id="svg48619" xml:space="preserve" xmlns="http://www.w3.org/2000/svg"><defs id="defs48616"><path id="rect4431-03-3-8" d="M-788.38 453.645h636.768V607.04H-788.38z"/><path id="rect4373-07-0-9" d="M-1083.279-7.135h663.523v185.501h-663.523z"/><path id="rect4431-03-3" d="M-788.38 453.645h636.768V607.04H-788.38z"/><path id="rect4373-07-0" d="M-1083.279-7.135h663.523v185.501h-663.523z"/><path id="rect4431-03-3-8-2" d="M-788.38 453.645h636.768V607.04H-788.38z"/><path id="rect4373-07-0-9-1" d="M-1083.279-7.135h663.523v185.501h-663.523z"/><path id="rect4431-10-2" d="M-788.38 453.645h636.768V607.04H-788.38z"/><path id="rect4373-7-5" d="M-1083.279-7.135h663.523v185.501h-663.523z"/><path id="rect4431-03-3-8-2-3" d="M-788.38 453.645h636.768V607.04H-788.38z"/><path id="rect4373-07-0-9-1-9" d="M-1083.279-7.135h663.523v185.501h-663.523z"/><path id="rect4431-03-3-3" d="M-788.38 453.645h636.768V607.04H-788.38z"/><path id="rect4373-07-0-3" d="M-1083.279-7.135h663.523v185.501h-663.523z"/></defs><g id="layer1" transform="translate(-.321 -.294)"><g id="g4503-62-1-7" transform="matrix(.99458 0 0 .99458 -24.28 -75.519)" style="fill:#b3b3b3;fill-opacity:1"><text xml:space="preserve" transform="matrix(.28723 0 0 .28723 251.1 58.99)" id="text4429-8-0-5" style="font-variant:normal;-inkscape-font-specification:Roboto;font-variant-ligatures:normal;font-variant-numeric:normal;font-variant-east-asian:normal;white-space:pre;shape-inside:url(#rect4431-03-3-8);opacity:.98;fill:#fff;fill-opacity:1;stroke:#000;stroke-width:0;stroke-dasharray:none;stroke-opacity:1;font-family:Roboto;font-size:32px;font-style:normal;font-variant-caps:normal;font-weight:400;font-stretch:100%;display:inline"><tspan x="-788.379" y="481.645" id="tspan28260">CERTIFIED PUBLIC ACCOUNTANT</tspan></text><text xml:space="preserve" transform="translate(649.92 174.043) scale(.57792)" id="text4371-0-5-0" style="font-variant:normal;-inkscape-font-specification:Roboto;font-variant-ligatures:normal;font-variant-numeric:normal;font-variant-east-asian:normal;white-space:pre;shape-inside:url(#rect4373-07-0-9);opacity:.98;fill:#fff;fill-opacity:1;stroke:#000;stroke-width:0;stroke-dasharray:none;stroke-opacity:1;font-family:Roboto;font-size:32px;font-style:normal;font-variant-caps:normal;font-weight:400;font-stretch:100%;display:inline"><tspan x="-1083.279" y="20.865" id="tspan28262">HARRY ROBBINS</tspan></text><g id="g16339-01-9-9" transform="matrix(.70262 0 0 .70262 1427.399 675.204)" style="fill:#b3b3b3;fill-opacity:1"><path id="path15443-0-8-9-4-9" style="fill:#999;fill-opacity:1;stroke-width:11.2599px" d="m-1815.241-852.04-.018 16.195h-2.484l.018-16.194z"/><g id="g16324-9-5-8" style="fill:#b3b3b3;fill-opacity:1"><g id="g2095-7-3-4-2" transform="matrix(.85973 0 0 .85973 -1461.364 -1103.643)" style="fill:#b3b3b3;fill-opacity:1"><path style="opacity:.84;fill:#fff;fill-opacity:1;stroke-width:.264999px" d="m-621.48 419.208 35.66-43.553 32.72 43.102 51.283-62.609 34.294 44.047 53.8-71.419-5.978-.629-.32-5.04 26.118-15.095-7.236 33.978-3.46-7.865-62.295 82.745-34.608-44.362-51.598 62.924-32.72-42.473-35.663 42.879z" id="path2079-7-1-6-2"/><path style="fill:#999;fill-opacity:1;stroke-width:.264733px" d="m-410.735 324.233-2.984 4.552-5.985-.623-.315-5.058z" id="path2081-2-3-2-7"/><path style="opacity:1;fill:#999;fill-opacity:1;stroke-width:.27034px" d="m-393.928 308.035-.101 4.267-7.114 29.721-3.44-7.733.072-5.607 3.214 8.72z" id="path2083-4-6-1-4"/><path style="opacity:1;fill:#999;fill-opacity:1;stroke-width:.264999px" d="m-501.524 368.543.011 3.927 34.613 44.41.163-3.943z" id="path2085-9-6-0-1"/><path style="opacity:1;fill:#999;fill-opacity:1;stroke-width:.264999px" d="m-585.854 388.308.023 4.654 32.735 42.47.03-4.456z" id="path2087-4-9-2-1"/><path style="opacity:1;fill:#999;fill-opacity:1;stroke-width:.264999px" d="m-404.5 328.692-.076 5.592-62.336 82.617.15-3.958z" id="path2089-1-8-1-6"/><path style="opacity:1;fill:#999;fill-opacity:1;stroke-width:.264999px" d="m-501.522 368.55.02 3.952-51.596 62.928-.002-4.515z" id="path2091-46-3-6-5"/><path style="opacity:1;fill:#999;fill-opacity:1;stroke-width:.264999px" d="m-585.856 388.303.037 4.659-35.662 42.871.001-4.904z" id="path2093-5-8-7-0"/></g><path id="path15439-2-4-5-7" style="fill:#999;fill-opacity:1;stroke-width:11.2599px" d="m-1815.241-721.622-180.433-.018v-2.484l180.433.018z"/><path id="path15443-00-30-7-7" style="fill:#999;fill-opacity:1;stroke-width:11.2599px" d="m-1815.241-798.867-.018 76.449-2.484.529.018-76.978z"/></g></g></g></g></svg>